<?xml version="1.0" encoding="UTF-8"?><svg xmlns="http://www.w3.org/2000/svg" xmlns:xlink="http://www.w3.org/1999/xlink" width="384" zoomAndPan="magnify" viewBox="0 0 384 383.999986" height="383.999986" preserveAspectRatio="xMidYMid meet" version="1.0"><defs><clipPath id="clip-0"><path d="M 34.40625 28.164062 L 349.40625 28.164062 L 349.40625 343.164062 L 34.40625 343.164062 Z M 34.40625 28.164062 " clip-rule="nonzero"/></clipPath></defs><rect x="-38.4" width="460.8" fill="rgb(100%, 100%, 100%)" y="-38.399999" height="460.799983" fill-opacity="1"/><rect x="-38.4" width="460.8" fill="rgb(100%, 100%, 100%)" y="-38.399999" height="460.799983" fill-opacity="1"/><rect x="-38.4" width="460.8" fill="rgb(39.99939%, 59.999084%, 39.99939%)" y="-38.399999" height="460.799983" fill-opacity="1"/><path fill="rgb(100%, 97.648621%, 97.648621%)" d="M 36.042969 185.613281 C 36.042969 99.5625 105.800781 29.796875 191.859375 29.796875 C 277.917969 29.796875 347.671875 99.5625 347.671875 185.613281 C 347.671875 271.671875 277.917969 341.433594 191.859375 341.433594 C 105.800781 341.433594 36.042969 271.671875 36.042969 185.613281 " fill-opacity="1" fill-rule="nonzero"/><g clip-path="url(#clip-0)"><path fill="rgb(100%, 97.648621%, 97.648621%)" d="M 191.859375 31.484375 C 106.863281 31.484375 37.722656 100.628906 37.722656 185.613281 C 37.722656 270.605469 106.863281 339.753906 191.859375 339.753906 C 276.847656 339.753906 345.996094 270.605469 345.996094 185.613281 C 345.996094 100.628906 276.847656 31.484375 191.859375 31.484375 Z M 191.859375 343.121094 C 105.007812 343.121094 34.363281 272.464844 34.363281 185.613281 C 34.363281 98.769531 105.007812 28.117188 191.859375 28.117188 C 278.703125 28.117188 349.359375 98.769531 349.359375 185.613281 C 349.359375 272.464844 278.703125 343.121094 191.859375 343.121094 " fill-opacity="1" fill-rule="nonzero"/></g><path fill="rgb(39.99939%, 59.999084%, 39.99939%)" d="M 273.34375 315.929688 C 277.574219 313.332031 283.386719 307.226562 286.195312 302.40625 C 289.003906 297.582031 287.320312 295.5 282.550781 297.691406 C 277.789062 299.882812 272.160156 305.847656 269.878906 311.078125 C 267.605469 316.3125 269.121094 318.53125 273.34375 315.929688 " fill-opacity="1" fill-rule="nonzero"/><path fill="rgb(39.99939%, 59.999084%, 39.99939%)" d="M 252.078125 326.796875 C 256.582031 324.925781 262.011719 318.988281 264.105469 313.628906 C 266.199219 308.277344 263.734375 305.265625 258.691406 306.839844 C 253.65625 308.414062 248.351562 314.222656 246.789062 319.871094 C 245.226562 325.523438 247.558594 328.664062 252.078125 326.796875 " fill-opacity="1" fill-rule="nonzero"/><path fill="rgb(39.99939%, 59.999084%, 39.99939%)" d="M 229.675781 334.109375 C 234.363281 332.972656 239.34375 327.320312 240.722656 321.589844 C 242.109375 315.859375 238.929688 312.042969 233.703125 313.007812 C 228.484375 313.96875 223.582031 319.476562 222.734375 325.390625 C 221.882812 331.300781 224.976562 335.25 229.675781 334.109375 " fill-opacity="1" fill-rule="nonzero"/><path fill="rgb(39.99939%, 59.999084%, 39.99939%)" d="M 206.589844 337.875 C 211.382812 337.464844 215.828125 332.226562 216.492188 326.277344 C 217.15625 320.324219 213.359375 315.832031 208.035156 316.179688 C 202.71875 316.523438 198.292969 321.621094 198.15625 327.636719 C 198.027344 333.65625 201.796875 338.285156 206.589844 337.875 " fill-opacity="1" fill-rule="nonzero"/><path fill="rgb(39.99939%, 59.999084%, 39.99939%)" d="M 183.25 338.089844 C 188.054688 338.410156 191.902344 333.710938 191.859375 327.691406 C 191.816406 321.671875 187.445312 316.628906 182.117188 316.359375 C 176.785156 316.089844 172.914062 320.65625 173.496094 326.617188 C 174.070312 332.589844 178.457031 337.765625 183.25 338.089844 " fill-opacity="1" fill-rule="nonzero"/><path fill="rgb(39.99939%, 59.999084%, 39.99939%)" d="M 160.109375 334.753906 C 164.824219 335.808594 168.003906 331.765625 167.246094 325.839844 C 166.484375 319.910156 161.632812 314.433594 156.390625 313.554688 C 151.152344 312.667969 147.898438 316.570312 149.195312 322.335938 C 150.488281 328.097656 155.402344 333.707031 160.109375 334.753906 " fill-opacity="1" fill-rule="nonzero"/><path fill="rgb(39.99939%, 59.999084%, 39.99939%)" d="M 137.605469 327.867188 C 142.140625 329.652344 144.582031 326.402344 143.101562 320.710938 C 141.621094 315.023438 136.371094 309.25 131.296875 307.746094 C 126.234375 306.246094 123.683594 309.363281 125.683594 314.773438 C 127.691406 320.183594 133.066406 326.09375 137.605469 327.867188 " fill-opacity="1" fill-rule="nonzero"/><path fill="rgb(39.99939%, 59.999084%, 39.99939%)" d="M 116.171875 317.433594 C 120.445312 319.945312 122.058594 317.613281 119.863281 312.324219 C 117.675781 307.027344 112.078125 301.074219 107.277344 298.960938 C 102.476562 296.839844 100.6875 299.046875 103.410156 303.9375 C 106.128906 308.839844 111.90625 314.925781 116.171875 317.433594 " fill-opacity="1" fill-rule="nonzero"/><path fill="rgb(39.99939%, 59.999084%, 39.99939%)" d="M 82.816406 289.84375 C 86.25 294.074219 92.332031 300.210938 96.25 303.453125 C 100.160156 306.691406 100.882812 305.394531 97.980469 300.65625 C 95.074219 295.910156 89.214844 289.910156 84.765625 287.179688 C 80.324219 284.449219 79.382812 285.609375 82.816406 289.84375 " fill-opacity="1" fill-rule="nonzero"/><path fill="rgb(39.99939%, 59.999084%, 39.99939%)" d="M 308.445312 274.074219 C 310.871094 269.125 308.53125 266.664062 303.359375 268.527344 C 298.195312 270.386719 292.464844 276.246094 290.449219 281.65625 C 288.433594 287.058594 290.570312 289.625 295.328125 287.304688 C 300.078125 284.980469 306.011719 279.019531 308.445312 274.074219 " fill-opacity="1" fill-rule="nonzero"/><path fill="rgb(39.99939%, 59.999084%, 39.99939%)" d="M 284.070312 283.925781 C 285.941406 278.375 282.925781 275.054688 277.441406 276.445312 C 271.957031 277.84375 266.382812 283.714844 264.921875 289.609375 C 263.464844 295.5 266.335938 298.925781 271.40625 297.183594 C 276.476562 295.441406 282.203125 289.46875 284.070312 283.925781 " fill-opacity="1" fill-rule="nonzero"/><path fill="rgb(39.99939%, 59.999084%, 39.99939%)" d="M 258.210938 291.230469 C 259.53125 285.238281 255.902344 281.175781 250.191406 282.109375 C 244.480469 283.042969 239.152344 288.800781 238.25 295.015625 C 237.335938 301.230469 240.875 305.40625 246.171875 304.238281 C 251.46875 303.082031 256.894531 297.21875 258.210938 291.230469 " fill-opacity="1" fill-rule="nonzero"/><path fill="rgb(39.99939%, 59.999084%, 39.99939%)" d="M 231.316406 295.992188 C 232.082031 289.714844 227.914062 285.039062 222.074219 285.5 C 216.222656 285.964844 211.207031 291.492188 210.867188 297.878906 C 210.523438 304.277344 214.628906 309.058594 220.058594 308.476562 C 225.5 307.898438 230.550781 302.269531 231.316406 295.992188 " fill-opacity="1" fill-rule="nonzero"/><path fill="rgb(39.99939%, 59.999084%, 39.99939%)" d="M 203.808594 298.210938 C 204.019531 291.792969 199.394531 286.632812 193.503906 286.632812 C 187.613281 286.632812 182.992188 291.792969 183.203125 298.210938 C 183.40625 304.621094 188.027344 309.890625 193.507812 309.890625 C 198.988281 309.890625 203.605469 304.621094 203.808594 298.210938 " fill-opacity="1" fill-rule="nonzero"/><path fill="rgb(39.99939%, 59.999084%, 39.99939%)" d="M 332.351562 245.300781 C 334.304688 240.449219 331.421875 237.710938 326.0625 239.15625 C 320.710938 240.59375 315.132812 246.097656 313.46875 251.476562 C 311.800781 256.84375 314.46875 259.65625 319.527344 257.691406 C 324.578125 255.722656 330.386719 250.144531 332.351562 245.300781 " fill-opacity="1" fill-rule="nonzero"/><path fill="rgb(39.99939%, 59.999084%, 39.99939%)" d="M 294.011719 266.203125 C 299.425781 264.671875 305.191406 258.882812 306.746094 253.351562 C 308.308594 247.820312 304.835938 244.265625 299.121094 245.390625 C 293.40625 246.519531 287.808594 252.230469 286.542969 258.171875 C 285.28125 264.113281 288.578125 267.738281 294.011719 266.203125 " fill-opacity="1" fill-rule="nonzero"/><path fill="rgb(39.99939%, 59.999084%, 39.99939%)" d="M 266.929688 272.613281 C 272.628906 271.515625 278.273438 265.648438 279.4375 259.589844 C 280.597656 253.527344 276.601562 249.292969 270.605469 250.101562 C 264.605469 250.910156 259.097656 256.695312 258.226562 263.054688 C 257.359375 269.414062 261.230469 273.722656 266.929688 272.613281 " fill-opacity="1" fill-rule="nonzero"/><path fill="rgb(39.99939%, 59.999084%, 39.99939%)" d="M 324.769531 224.8125 C 325.8125 219.363281 321.816406 215.484375 316 216.15625 C 310.1875 216.816406 304.851562 222.148438 303.988281 228.058594 C 303.128906 233.976562 306.914062 237.890625 312.554688 236.765625 C 318.195312 235.640625 323.722656 230.261719 324.769531 224.8125 " fill-opacity="1" fill-rule="nonzero"/><path fill="rgb(39.99939%, 59.999084%, 39.99939%)" d="M 296.660156 229.035156 C 297.460938 222.980469 293.050781 218.488281 286.914062 218.992188 C 280.78125 219.488281 275.359375 225.070312 274.734375 231.472656 C 274.109375 237.871094 278.375 242.40625 284.324219 241.558594 C 290.28125 240.710938 295.859375 235.085938 296.660156 229.035156 " fill-opacity="1" fill-rule="nonzero"/><path fill="rgb(39.99939%, 59.999084%, 39.99939%)" d="M 343.394531 197.921875 C 343.785156 192.769531 339.363281 188.648438 333.667969 188.730469 C 327.964844 188.808594 323.179688 193.480469 322.847656 199.160156 C 322.515625 204.835938 326.71875 208.972656 332.351562 208.367188 C 337.992188 207.765625 343 203.078125 343.394531 197.921875 " fill-opacity="1" fill-rule="nonzero"/><path fill="rgb(39.99939%, 59.999084%, 39.99939%)" d="M 304.027344 210.980469 C 310.027344 210.507812 315.253906 205.371094 315.558594 199.535156 C 315.875 193.695312 311.113281 189.007812 305.050781 189.070312 C 298.988281 189.128906 293.9375 194.25 293.691406 200.5 C 293.433594 206.742188 298.015625 211.449219 304.027344 210.980469 " fill-opacity="1" fill-rule="nonzero"/><path fill="rgb(39.99939%, 59.999084%, 39.99939%)" d="M 328.03125 172.691406 C 327.683594 167.136719 322.539062 162.183594 316.691406 161.652344 C 310.832031 161.125 306.414062 165.59375 306.703125 171.605469 C 306.984375 177.625 311.925781 182.5625 317.839844 182.628906 C 323.746094 182.699219 328.375 178.246094 328.03125 172.691406 " fill-opacity="1" fill-rule="nonzero"/><path fill="rgb(39.99939%, 59.999084%, 39.99939%)" d="M 339.710938 149.589844 C 338.539062 144.542969 333.0625 139.367188 327.636719 138.082031 C 322.214844 136.800781 318.726562 140.316406 319.71875 145.890625 C 320.71875 151.464844 325.96875 156.59375 331.570312 157.355469 C 337.175781 158.121094 340.882812 154.644531 339.710938 149.589844 " fill-opacity="1" fill-rule="nonzero"/><path fill="rgb(39.99939%, 59.999084%, 39.99939%)" d="M 318.238281 121.523438 C 316.503906 116.277344 310.703125 110.5625 305.433594 108.84375 C 300.15625 107.117188 297.132812 110.402344 298.566406 116.109375 C 300.011719 121.820312 305.609375 127.457031 311.175781 128.722656 C 316.738281 129.984375 319.96875 126.777344 318.238281 121.523438 " fill-opacity="1" fill-rule="nonzero"/><path fill="rgb(39.99939%, 59.999084%, 39.99939%)" d="M 321.292969 104.128906 C 318.554688 99.578125 312.53125 93.683594 307.996094 91.039062 C 303.457031 88.382812 301.757812 90.414062 304.085938 95.484375 C 306.414062 100.554688 312.210938 106.347656 317.160156 108.472656 C 322.109375 110.59375 324.035156 108.667969 321.292969 104.128906 " fill-opacity="1" fill-rule="nonzero"/><path fill="rgb(39.99939%, 59.999084%, 39.99939%)" d="M 282.222656 61.527344 C 278.140625 58.613281 277.027344 60.375 279.613281 65.378906 C 282.207031 70.382812 287.957031 76.378906 292.570312 78.84375 C 297.175781 81.300781 298.511719 79.664062 295.378906 75.125 C 292.261719 70.585938 286.300781 64.449219 282.222656 61.527344 " fill-opacity="1" fill-rule="nonzero"/></svg>