<?xml version="1.0" encoding="UTF-8"?><svg xmlns="http://www.w3.org/2000/svg" xmlns:xlink="http://www.w3.org/1999/xlink" width="4535.25pt" zoomAndPan="magnify" viewBox="0 0 4535.25 2551.49989" height="2551.49989pt" preserveAspectRatio="xMidYMid meet" version="1.2"><defs><g/><clipPath xml:id="clip1" id="clip1"><path d="M 0.0703125 0 L 1397 0 L 1397 1451 L 0.0703125 1451 Z M 0.0703125 0 "/></clipPath><clipPath xml:id="clip2" id="clip2"><path d="M 3327 0 L 4534.429688 0 L 4534.429688 1459 L 3327 1459 Z M 3327 0 "/></clipPath><clipPath xml:id="clip3" id="clip3"><path d="M 0.0703125 692 L 1544 692 L 1544 2551 L 0.0703125 2551 Z M 0.0703125 692 "/></clipPath><clipPath xml:id="clip4" id="clip4"><path d="M 1758 692 L 3763 692 L 3763 2551 L 1758 2551 Z M 1758 692 "/></clipPath><clipPath xml:id="clip5" id="clip5"><path d="M 2159.332031 1129.40625 L 3358.8125 1129.40625 L 3358.8125 2328.882812 L 2159.332031 2328.882812 Z M 2159.332031 1129.40625 "/></clipPath></defs><g xml:id="surface1" id="surface1"><g style="fill:rgb(100%,97.648621%,97.648621%);fill-opacity:1;"><g transform="translate(180.718019, 1055.199474)"><path style="stroke:none;" d="M 454.046875 -742.484375 C 530.410156 -742.484375 596.425781 -735.582031 652.09375 -721.78125 C 707.757812 -707.988281 750.539062 -688.671875 780.4375 -663.828125 C 810.34375 -638.984375 825.296875 -610.921875 825.296875 -579.640625 C 825.296875 -547.441406 812.644531 -521.21875 787.34375 -500.96875 C 762.039062 -480.726562 726.847656 -470.609375 681.765625 -470.609375 C 635.765625 -470.609375 596.890625 -482.109375 565.140625 -505.109375 C 533.398438 -528.109375 517.53125 -557.09375 517.53125 -592.0625 C 517.53125 -604.019531 519.375 -615.519531 523.0625 -626.5625 C 506.5 -631.164062 491.773438 -633.46875 478.890625 -633.46875 C 455.890625 -633.46875 436.796875 -627.945312 421.609375 -616.90625 C 406.429688 -605.863281 399.304688 -590.222656 400.234375 -569.984375 C 400.234375 -546.054688 412.191406 -525.8125 436.109375 -509.25 C 460.023438 -492.6875 498.664062 -471.988281 552.03125 -447.15625 C 598.039062 -426.90625 635.992188 -408.269531 665.890625 -391.25 C 695.796875 -374.226562 721.097656 -352.835938 741.796875 -327.078125 C 762.503906 -301.316406 772.859375 -270.957031 772.859375 -236 C 772.859375 -228.632812 771.015625 -214.832031 767.328125 -194.59375 C 752.609375 -132.945312 711.664062 -84.179688 644.5 -48.296875 C 577.332031 -12.421875 489.007812 5.515625 379.53125 5.515625 C 256.238281 5.515625 158.476562 -11.039062 86.25 -44.15625 C 14.03125 -77.28125 -22.078125 -122.828125 -22.078125 -180.796875 C -22.078125 -220.359375 -10.117188 -250.257812 13.796875 -270.5 C 37.722656 -290.738281 69.46875 -300.859375 109.03125 -300.859375 C 155.03125 -300.859375 194.359375 -286.597656 227.015625 -258.078125 C 259.679688 -229.554688 276.015625 -193.210938 276.015625 -149.046875 C 276.015625 -137.085938 274.632812 -124.664062 271.875 -111.78125 C 293.957031 -106.257812 315.117188 -103.5 335.359375 -103.5 C 359.285156 -103.5 379.066406 -109.941406 394.703125 -122.828125 C 410.347656 -135.710938 418.171875 -153.65625 418.171875 -176.65625 C 417.242188 -197.8125 406.660156 -215.976562 386.421875 -231.15625 C 366.179688 -246.34375 333.976562 -264.515625 289.8125 -285.671875 C 248.414062 -304.992188 214.375 -323.164062 187.6875 -340.1875 C 161.007812 -357.207031 138.238281 -378.597656 119.375 -404.359375 C 100.519531 -430.128906 91.09375 -460.492188 91.09375 -495.453125 C 91.09375 -570.898438 122.601562 -630.929688 185.625 -675.546875 C 248.644531 -720.171875 338.117188 -742.484375 454.046875 -742.484375 Z M 454.046875 -742.484375 "/></g></g><g style="fill:rgb(100%,97.648621%,97.648621%);fill-opacity:1;"><g transform="translate(964.534949, 1055.199474)"><path style="stroke:none;" d="M 1295.90625 -534.09375 C 1295.90625 -452.207031 1267.382812 -368.484375 1210.34375 -282.921875 C 1153.300781 -197.359375 1081.304688 -126.742188 994.359375 -71.078125 C 907.410156 -15.410156 822.070312 12.421875 738.34375 12.421875 C 672.101562 12.421875 615.976562 0.921875 569.96875 -22.078125 C 523.96875 -45.078125 494.066406 -78.203125 480.265625 -121.453125 C 446.222656 -80.046875 408.5 -48.757812 367.09375 -27.59375 C 325.695312 -6.4375 282.457031 4.140625 237.375 4.140625 C 174.8125 4.140625 123.976562 -11.269531 84.875 -42.09375 C 45.769531 -72.914062 26.21875 -118.226562 26.21875 -178.03125 C 26.21875 -209.3125 31.28125 -241.515625 41.40625 -274.640625 L 118.6875 -545.140625 C 120.53125 -552.492188 121.453125 -558.015625 121.453125 -561.703125 C 121.453125 -570.898438 119.148438 -578.71875 114.546875 -585.15625 C 109.941406 -591.601562 103.5 -598.503906 95.21875 -605.859375 C 81.425781 -617.816406 74.53125 -628.398438 74.53125 -637.609375 C 73.601562 -650.484375 81.421875 -664.28125 97.984375 -679 C 114.546875 -693.726562 137.773438 -705.921875 167.671875 -715.578125 C 197.578125 -725.234375 231.394531 -730.0625 269.125 -730.0625 C 330.757812 -730.0625 378.828125 -715.109375 413.328125 -685.203125 C 447.835938 -655.304688 465.09375 -616.4375 465.09375 -568.59375 C 465.09375 -547.4375 461.410156 -524.4375 454.046875 -499.59375 L 383.671875 -264.984375 C 379.984375 -252.097656 378.140625 -243.351562 378.140625 -238.75 C 378.140625 -226.789062 381.585938 -217.59375 388.484375 -211.15625 C 395.390625 -204.71875 404.820312 -201.5 416.78125 -201.5 C 433.34375 -201.5 447.375 -207.25 458.875 -218.75 C 470.375 -230.25 481.644531 -248.878906 492.6875 -274.640625 L 571.359375 -545.140625 C 573.203125 -552.492188 574.125 -558.015625 574.125 -561.703125 C 574.125 -570.898438 571.820312 -578.71875 567.21875 -585.15625 C 562.613281 -591.601562 556.171875 -598.503906 547.890625 -605.859375 C 534.097656 -617.816406 527.203125 -628.398438 527.203125 -637.609375 C 526.273438 -650.484375 534.09375 -664.28125 550.65625 -679 C 567.21875 -693.726562 590.445312 -705.921875 620.34375 -715.578125 C 650.25 -725.234375 684.066406 -730.0625 721.796875 -730.0625 C 784.359375 -730.0625 832.660156 -715.34375 866.703125 -685.90625 C 900.742188 -656.46875 917.765625 -617.363281 917.765625 -568.59375 C 917.765625 -549.269531 914.082031 -526.269531 906.71875 -499.59375 L 817.015625 -204.25 C 815.171875 -199.65625 814.25 -192.753906 814.25 -183.546875 C 814.25 -171.585938 818.390625 -162.390625 826.671875 -155.953125 C 834.953125 -149.515625 846.453125 -146.296875 861.171875 -146.296875 C 881.421875 -146.296875 905.113281 -155.265625 932.25 -173.203125 C 959.394531 -191.140625 986.078125 -216.898438 1012.296875 -250.484375 C 1038.515625 -284.066406 1059.90625 -323.859375 1076.46875 -369.859375 C 1039.664062 -402.066406 1013.671875 -433.8125 998.484375 -465.09375 C 983.304688 -496.375 975.71875 -528.578125 975.71875 -561.703125 C 975.71875 -608.617188 988.597656 -648.40625 1014.359375 -681.0625 C 1040.128906 -713.726562 1077.394531 -730.0625 1126.15625 -730.0625 C 1174.914062 -730.0625 1215.394531 -712.582031 1247.59375 -677.625 C 1279.800781 -642.664062 1295.90625 -594.820312 1295.90625 -534.09375 Z M 1295.90625 -534.09375 "/></g></g><g style="fill:rgb(100%,97.648621%,97.648621%);fill-opacity:1;"><g transform="translate(2209.262914, 1055.199474)"><path style="stroke:none;" d="M 467.859375 -736.96875 C 584.703125 -736.96875 669.34375 -718.335938 721.78125 -681.078125 C 774.226562 -643.816406 800.453125 -596.203125 800.453125 -538.234375 C 800.453125 -520.753906 798.613281 -504.65625 794.9375 -489.9375 C 781.132812 -429.207031 742.71875 -385.734375 679.6875 -359.515625 C 616.664062 -333.296875 542.375 -320.1875 456.8125 -320.1875 C 413.570312 -320.1875 373.085938 -322.945312 335.359375 -328.46875 C 334.441406 -280.625 347.320312 -247.039062 374 -227.71875 C 400.6875 -208.394531 437.953125 -198.734375 485.796875 -198.734375 C 507.878906 -198.734375 529.039062 -201.265625 549.28125 -206.328125 C 569.519531 -211.390625 595.28125 -218.976562 626.5625 -229.09375 C 652.320312 -238.289062 669.800781 -242.890625 679 -242.890625 C 689.125 -242.890625 694.1875 -236.910156 694.1875 -224.953125 C 695.101562 -192.753906 683.140625 -158.941406 658.296875 -123.515625 C 633.460938 -88.097656 596.660156 -57.96875 547.890625 -33.125 C 499.128906 -8.28125 440.25 4.140625 371.25 4.140625 C 269.125 4.140625 185.394531 -21.617188 120.0625 -73.140625 C 54.738281 -124.671875 22.078125 -199.65625 22.078125 -298.09375 C 22.078125 -325.695312 25.757812 -357.898438 33.125 -394.703125 C 56.125 -507.867188 106.492188 -593.203125 184.234375 -650.703125 C 261.984375 -708.210938 356.523438 -736.96875 467.859375 -736.96875 Z M 345.03125 -411.265625 C 348.707031 -410.347656 353.765625 -409.890625 360.203125 -409.890625 C 398.847656 -409.890625 428.289062 -427.828125 448.53125 -463.703125 C 468.769531 -499.585938 478.429688 -539.613281 477.515625 -583.78125 C 476.585938 -609.539062 469.226562 -622.421875 455.4375 -622.421875 C 445.3125 -622.421875 433.347656 -614.367188 419.546875 -598.265625 C 405.742188 -582.171875 392.171875 -558.019531 378.828125 -525.8125 C 365.492188 -493.613281 354.226562 -455.429688 345.03125 -411.265625 Z M 345.03125 -411.265625 "/></g></g><g style="fill:rgb(100%,97.648621%,97.648621%);fill-opacity:1;"><g transform="translate(2947.541225, 1055.199474)"><path style="stroke:none;" d="M 467.859375 -736.96875 C 584.703125 -736.96875 669.34375 -718.335938 721.78125 -681.078125 C 774.226562 -643.816406 800.453125 -596.203125 800.453125 -538.234375 C 800.453125 -520.753906 798.613281 -504.65625 794.9375 -489.9375 C 781.132812 -429.207031 742.71875 -385.734375 679.6875 -359.515625 C 616.664062 -333.296875 542.375 -320.1875 456.8125 -320.1875 C 413.570312 -320.1875 373.085938 -322.945312 335.359375 -328.46875 C 334.441406 -280.625 347.320312 -247.039062 374 -227.71875 C 400.6875 -208.394531 437.953125 -198.734375 485.796875 -198.734375 C 507.878906 -198.734375 529.039062 -201.265625 549.28125 -206.328125 C 569.519531 -211.390625 595.28125 -218.976562 626.5625 -229.09375 C 652.320312 -238.289062 669.800781 -242.890625 679 -242.890625 C 689.125 -242.890625 694.1875 -236.910156 694.1875 -224.953125 C 695.101562 -192.753906 683.140625 -158.941406 658.296875 -123.515625 C 633.460938 -88.097656 596.660156 -57.96875 547.890625 -33.125 C 499.128906 -8.28125 440.25 4.140625 371.25 4.140625 C 269.125 4.140625 185.394531 -21.617188 120.0625 -73.140625 C 54.738281 -124.671875 22.078125 -199.65625 22.078125 -298.09375 C 22.078125 -325.695312 25.757812 -357.898438 33.125 -394.703125 C 56.125 -507.867188 106.492188 -593.203125 184.234375 -650.703125 C 261.984375 -708.210938 356.523438 -736.96875 467.859375 -736.96875 Z M 345.03125 -411.265625 C 348.707031 -410.347656 353.765625 -409.890625 360.203125 -409.890625 C 398.847656 -409.890625 428.289062 -427.828125 448.53125 -463.703125 C 468.769531 -499.585938 478.429688 -539.613281 477.515625 -583.78125 C 476.585938 -609.539062 469.226562 -622.421875 455.4375 -622.421875 C 445.3125 -622.421875 433.347656 -614.367188 419.546875 -598.265625 C 405.742188 -582.171875 392.171875 -558.019531 378.828125 -525.8125 C 365.492188 -493.613281 354.226562 -455.429688 345.03125 -411.265625 Z M 345.03125 -411.265625 "/></g></g><g style="fill:rgb(100%,97.648621%,97.648621%);fill-opacity:1;"><g transform="translate(3685.819295, 1055.199474)"><path style="stroke:none;" d="M 616.90625 -712.125 C 634.382812 -712.125 647.953125 -708.441406 657.609375 -701.078125 C 667.273438 -693.722656 672.109375 -683.601562 672.109375 -670.71875 C 672.109375 -667.039062 671.1875 -660.601562 669.34375 -651.40625 C 657.382812 -610.925781 629.785156 -590.6875 586.546875 -590.6875 L 506.5 -590.6875 L 402.984375 -249.796875 C 398.390625 -235.992188 396.09375 -221.734375 396.09375 -207.015625 C 396.09375 -190.453125 400.691406 -178.945312 409.890625 -172.5 C 419.085938 -166.0625 431.96875 -162.84375 448.53125 -162.84375 C 463.25 -162.84375 481.648438 -164.6875 503.734375 -168.375 C 514.773438 -171.132812 524.4375 -172.515625 532.71875 -172.515625 C 539.15625 -172.515625 543.984375 -170.441406 547.203125 -166.296875 C 550.421875 -162.160156 552.03125 -156.875 552.03125 -150.4375 C 552.957031 -132.03125 539.390625 -109.710938 511.328125 -83.484375 C 483.265625 -57.265625 445.3125 -34.722656 397.46875 -15.859375 C 349.625 2.992188 296.71875 12.421875 238.75 12.421875 C 176.1875 12.421875 126.039062 -1.835938 88.3125 -30.359375 C 50.59375 -58.878906 31.734375 -97.984375 31.734375 -147.671875 C 31.734375 -170.671875 35.414062 -192.753906 42.78125 -213.921875 L 131.109375 -487.171875 C 135.710938 -502.816406 138.015625 -515.238281 138.015625 -524.4375 C 138.015625 -542.832031 133.640625 -558.472656 124.890625 -571.359375 C 116.148438 -584.242188 103.960938 -597.582031 88.328125 -611.375 C 74.523438 -624.257812 64.863281 -635.070312 59.34375 -643.8125 C 53.820312 -652.550781 52.441406 -662.898438 55.203125 -674.859375 C 58.878906 -686.828125 66.695312 -696.03125 78.65625 -702.46875 C 90.625 -708.90625 109.488281 -712.125 135.25 -712.125 L 212.53125 -712.125 L 299.484375 -799.078125 C 329.847656 -829.441406 357.675781 -850.601562 382.96875 -862.5625 C 408.269531 -874.519531 441.164062 -880.5 481.65625 -880.5 C 539.613281 -880.5 568.59375 -858.414062 568.59375 -814.25 C 568.59375 -800.445312 566.753906 -787.566406 563.078125 -775.609375 L 543.75 -712.125 Z M 616.90625 -712.125 "/></g></g><g clip-rule="nonzero" clip-path="url(#clip1)"><path style="fill:none;stroke-width:2.33333;stroke-linecap:butt;stroke-linejoin:miter;stroke:rgb(39.99939%,59.999084%,39.99939%);stroke-opacity:1;stroke-miterlimit:4;" d="M 15.637104 15.89291 C 18.219168 15.89291 20.448215 16.128387 22.323979 16.59921 C 24.207403 17.062505 25.65421 17.715582 26.664135 18.558573 C 27.674192 19.393904 28.179221 20.34321 28.179221 21.406491 C 28.179221 22.492488 27.750263 23.377212 26.892085 24.060665 C 26.041434 24.74425 24.852952 25.08591 23.326508 25.08591 C 21.777217 25.08591 20.463403 24.698554 19.384934 23.923974 C 18.314125 23.141735 17.778721 22.162053 17.778721 20.98493 C 17.778721 20.582518 17.839473 20.191332 17.960975 19.811636 C 17.406685 19.659758 16.909184 19.583819 16.468737 19.583819 C 15.694025 19.583819 15.048608 19.769903 14.53209 20.141939 C 14.023363 20.514107 13.784056 21.041851 13.814431 21.725436 C 13.814431 22.538051 14.216975 23.225334 15.02193 23.787284 C 15.834546 24.341706 17.140832 25.040347 18.940657 25.883338 C 20.497608 26.56679 21.781047 27.197152 22.791104 27.77429 C 23.801161 28.35156 24.65551 29.076746 25.354151 29.950113 C 26.060451 30.815951 26.413602 31.841197 26.413602 33.025848 C 26.413602 33.268853 26.34902 33.732148 26.21999 34.415601 C 25.726319 36.504127 24.344094 38.155904 22.073446 39.371063 C 19.802666 40.578562 16.814227 41.182245 13.108131 41.182245 C 8.946399 41.182245 5.642846 40.624125 3.197472 39.507753 C 0.752098 38.383721 -0.470589 36.842089 -0.470589 34.882726 C -0.470589 33.546064 -0.0680456 32.536007 0.73691 31.852554 C 1.549525 31.169102 2.627862 30.827309 3.972184 30.827309 C 5.521343 30.827309 6.846647 31.30949 7.947831 32.273984 C 9.056544 33.238478 9.610966 34.468825 9.610966 35.964893 C 9.610966 36.367437 9.565402 36.785168 9.474275 37.217955 C 10.218479 37.407869 10.93244 37.502827 11.615893 37.502827 C 12.428508 37.502827 13.096773 37.286367 13.620819 36.853447 C 14.152394 36.413 14.418247 35.805487 14.418247 35.030775 C 14.387871 34.316946 14.030891 33.701773 13.347438 33.185386 C 12.663985 32.669 11.574159 32.053826 10.078091 31.339866 C 8.680678 30.686789 7.5301 30.075445 6.626357 29.505835 C 5.722615 28.928697 4.951865 28.203379 4.313844 27.330012 C 3.675955 26.456778 3.35701 25.431533 3.35701 24.254409 C 3.35701 21.702588 4.420159 19.671116 6.546588 18.15986 C 8.680678 16.648604 11.71085 15.89291 15.637104 15.89291 Z M 15.637104 15.89291 " transform="matrix(29.57753,0,0,29.57753,172.399338,-157.479264)"/></g><path style="fill:none;stroke-width:2.33333;stroke-linecap:butt;stroke-linejoin:miter;stroke:rgb(39.99939%,59.999084%,39.99939%);stroke-opacity:1;stroke-miterlimit:4;" d="M 44.093284 22.944293 C 44.093284 25.708612 43.128923 28.537644 41.199935 31.430993 C 39.270948 34.324474 36.836931 36.712927 33.897887 38.596351 C 30.958842 40.479775 28.07302 41.421553 25.24029 41.421553 C 22.999886 41.421553 21.101274 41.034197 19.544455 40.259485 C 17.995163 39.477378 16.985106 38.357175 16.514283 36.899011 C 15.367535 38.296424 14.091625 39.352045 12.686683 40.065873 C 11.28927 40.779702 9.831238 41.136682 8.312322 41.136682 C 6.193552 41.136682 4.473365 40.616465 3.151891 39.576032 C 1.830549 38.5356 1.169812 37.005326 1.169812 34.985211 C 1.169812 33.922062 1.340708 32.832236 1.682368 31.715864 L 4.29111 22.568427 C 4.351862 22.317761 4.382238 22.131677 4.382238 22.010175 C 4.382238 21.69889 4.302468 21.436867 4.143062 21.224237 C 3.991052 21.003947 3.778422 20.76847 3.505041 20.517937 C 3.034218 20.115393 2.79874 19.758413 2.79874 19.447128 C 2.768365 19.006681 3.034218 18.539556 3.596168 18.045885 C 4.15825 17.544686 4.944188 17.130784 5.954245 16.80418 C 6.964302 16.477707 8.10722 16.314339 9.38313 16.314339 C 11.463996 16.314339 13.085397 16.819368 14.247333 17.829425 C 15.416929 18.839482 16.001594 20.153428 16.001594 21.770999 C 16.001594 22.492488 15.880092 23.270897 15.637086 24.106229 L 13.256293 32.046166 C 13.127131 32.479086 13.062682 32.771485 13.062682 32.923363 C 13.062682 33.333435 13.180354 33.648681 13.415832 33.868839 C 13.651177 34.081469 13.970122 34.187784 14.372666 34.187784 C 14.934616 34.187784 15.409269 33.994172 15.796624 33.606816 C 16.18398 33.219592 16.563676 32.589231 16.935712 31.715864 L 19.601376 22.568427 C 19.662127 22.317761 19.692503 22.131677 19.692503 22.010175 C 19.692503 21.69889 19.612734 21.436867 19.453328 21.224237 C 19.301449 21.003947 19.08499 20.76847 18.803949 20.517937 C 18.340786 20.115393 18.109138 19.758413 18.109138 19.447128 C 18.078762 19.006681 18.340786 18.539556 18.895076 18.045885 C 19.457158 17.544686 20.243095 17.130784 21.253153 16.80418 C 22.26321 16.477707 23.40626 16.314339 24.682038 16.314339 C 26.80094 16.314339 28.433698 16.81184 29.580446 17.806709 C 30.734854 18.801579 31.311992 20.123053 31.311992 21.770999 C 31.311992 22.424076 31.186659 23.202486 30.935994 24.106229 L 27.905822 34.096657 C 27.845071 34.248535 27.814695 34.480183 27.814695 34.791599 C 27.814695 35.194143 27.951386 35.505428 28.224899 35.725717 C 28.505808 35.945875 28.896994 36.05602 29.398192 36.05602 C 30.081645 36.05602 30.882903 35.752263 31.801833 35.144749 C 32.720763 34.537104 33.620675 33.667567 34.50157 32.536007 C 35.390125 31.396919 36.115443 30.0489 36.677393 28.49208 C 35.43199 27.406084 34.550964 26.335275 34.034577 25.279654 C 33.525718 24.216373 33.271355 23.126547 33.271355 22.010175 C 33.271355 20.42298 33.704143 19.07879 34.569981 17.977606 C 35.443348 16.868761 36.703939 16.314339 38.352017 16.314339 C 39.999964 16.314339 41.367001 16.906797 42.452998 18.091448 C 43.546522 19.276232 44.093284 20.893803 44.093284 22.944293 Z M 44.093284 22.944293 " transform="matrix(29.57753,0,0,29.57753,956.216268,-157.479264)"/><path style="fill:none;stroke-width:2.33333;stroke-linecap:butt;stroke-linejoin:miter;stroke:rgb(39.99939%,59.999084%,39.99939%);stroke-opacity:1;stroke-miterlimit:4;" d="M 16.104164 16.086522 C 20.053266 16.086522 22.912542 16.716883 24.682123 17.977606 C 26.4591 19.238196 27.347655 20.848239 27.347655 22.807602 C 27.347655 23.3924 27.283205 23.935332 27.154043 24.436663 C 26.690748 26.487153 25.392121 27.956676 23.258164 28.845098 C 21.131735 29.733653 18.621779 30.17793 15.728298 30.17793 C 14.262605 30.17793 12.891738 30.083105 11.615827 29.893191 C 11.585452 31.510762 12.022201 32.646152 12.925944 33.299229 C 13.829686 33.952438 15.090277 34.278911 16.707979 34.278911 C 17.452184 34.278911 18.166012 34.195444 18.849597 34.028377 C 19.533049 33.853651 20.406416 33.595458 21.469565 33.253666 C 22.335404 32.942381 22.923899 32.786672 23.235316 32.786672 C 23.577109 32.786672 23.748005 32.987944 23.748005 33.390356 C 23.77838 34.484012 23.372007 35.63076 22.529016 36.830732 C 21.693685 38.023043 20.45198 39.040628 18.804033 39.883619 C 17.155955 40.71895 15.166216 41.136682 12.834816 41.136682 C 9.379385 41.136682 6.546655 40.267145 4.336627 38.528072 C 2.134258 36.788866 1.033074 34.252365 1.033074 30.918436 C 1.033074 29.984318 1.154576 28.898322 1.397582 27.660447 C 2.179821 23.832847 3.884821 20.947026 6.51245 19.002851 C 9.140078 17.058675 12.337316 16.086522 16.104164 16.086522 Z M 11.946262 27.090837 C 12.067765 27.121213 12.238661 27.1364 12.458818 27.1364 C 13.765105 27.1364 14.759974 26.532717 15.443427 25.325218 C 16.127012 24.110058 16.453484 22.754511 16.423108 21.258311 C 16.392733 20.392604 16.145897 19.959684 15.682734 19.959684 C 15.340942 19.959684 14.9347 20.233066 14.463745 20.77996 C 14.000582 21.319062 13.541117 22.135507 13.08535 23.229164 C 12.637375 24.31516 12.257679 25.602297 11.946262 27.090837 Z M 11.946262 27.090837 " transform="matrix(29.57753,0,0,29.57753,2200.944234,-157.479264)"/><path style="fill:none;stroke-width:2.33333;stroke-linecap:butt;stroke-linejoin:miter;stroke:rgb(39.99939%,59.999084%,39.99939%);stroke-opacity:1;stroke-miterlimit:4;" d="M 16.104131 16.086522 C 20.053233 16.086522 22.912509 16.716883 24.68209 17.977606 C 26.459199 19.238196 27.347754 20.848239 27.347754 22.807602 C 27.347754 23.3924 27.283173 23.935332 27.15401 24.436663 C 26.690715 26.487153 25.392089 27.956676 23.258131 28.845098 C 21.131702 29.733653 18.621746 30.17793 15.728265 30.17793 C 14.262573 30.17793 12.891705 30.083105 11.615927 29.893191 C 11.585551 31.510762 12.022168 32.646152 12.925911 33.299229 C 13.829653 33.952438 15.090376 34.278911 16.707947 34.278911 C 17.452151 34.278911 18.166111 34.195444 18.849564 34.028377 C 19.533017 33.853651 20.406384 33.595458 21.469664 33.253666 C 22.335371 32.942381 22.923999 32.786672 23.235284 32.786672 C 23.577076 32.786672 23.747972 32.987944 23.747972 33.390356 C 23.778348 34.484012 23.371974 35.63076 22.528983 36.830732 C 21.693652 38.023043 20.451947 39.040628 18.804001 39.883619 C 17.156054 40.71895 15.166315 41.136682 12.834784 41.136682 C 9.379352 41.136682 6.546622 40.267145 4.336594 38.528072 C 2.134225 36.788866 1.033041 34.252365 1.033041 30.918436 C 1.033041 29.984318 1.154544 28.898322 1.397681 27.660447 C 2.179789 23.832847 3.884789 20.947026 6.512417 19.002851 C 9.140177 17.058675 12.337415 16.086522 16.104131 16.086522 Z M 11.946229 27.090837 C 12.067732 27.121213 12.238628 27.1364 12.458918 27.1364 C 13.765072 27.1364 14.759941 26.532717 15.443526 25.325218 C 16.126979 24.110058 16.453583 22.754511 16.423208 21.258311 C 16.392832 20.392604 16.145997 19.959684 15.682702 19.959684 C 15.340909 19.959684 14.934668 20.233066 14.463845 20.77996 C 14.000549 21.319062 13.541084 22.135507 13.085449 23.229164 C 12.637342 24.31516 12.257646 25.602297 11.946229 27.090837 Z M 11.946229 27.090837 " transform="matrix(29.57753,0,0,29.57753,2939.222544,-157.479264)"/><g clip-rule="nonzero" clip-path="url(#clip2)"><path style="fill:none;stroke-width:2.33333;stroke-linecap:butt;stroke-linejoin:miter;stroke:rgb(39.99939%,59.999084%,39.99939%);stroke-opacity:1;stroke-miterlimit:4;" d="M 21.139337 16.918155 C 21.731663 16.918155 22.191128 17.043487 22.517601 17.294021 C 22.844205 17.544686 23.007441 17.886479 23.007441 18.319266 C 23.007441 18.448429 22.977066 18.668718 22.916314 18.980003 C 22.506243 20.34704 21.572125 21.030493 20.114092 21.030493 L 17.402865 21.030493 L 13.905568 32.558855 C 13.75369 33.022018 13.67775 33.504331 13.67775 34.00553 C 13.67775 34.559952 13.829629 34.947308 14.133385 35.167465 C 14.444802 35.387755 14.881552 35.4979 15.443502 35.4979 C 15.9447 35.4979 16.567402 35.433318 17.311738 35.304156 C 17.683774 35.213029 18.010378 35.167465 18.291419 35.167465 C 18.511577 35.167465 18.674945 35.239707 18.78126 35.383925 C 18.887575 35.520615 18.940667 35.699172 18.940667 35.919329 C 18.971042 36.534503 18.511577 37.286367 17.562271 38.174921 C 16.620625 39.063476 15.340885 39.826698 13.723314 40.464587 C 12.105743 41.102476 10.317276 41.421553 8.357913 41.421553 C 6.239011 41.421553 4.541671 40.93924 3.265893 39.974746 C 1.989982 39.010252 1.352093 37.688778 1.352093 36.010456 C 1.352093 35.228217 1.477426 34.480183 1.727959 33.766354 L 4.712567 24.52779 C 4.872106 23.996084 4.951743 23.578484 4.951743 23.274727 C 4.951743 22.651894 4.803694 22.12415 4.507598 21.69123 C 4.211369 21.250783 3.797467 20.795148 3.265893 20.324193 C 2.802598 19.891405 2.475993 19.526765 2.286211 19.230668 C 2.103957 18.934439 2.058394 18.585119 2.149521 18.182575 C 2.271023 17.780164 2.533047 17.468747 2.935458 17.248457 C 3.34553 17.0283 3.983551 16.918155 4.849258 16.918155 L 7.469358 16.918155 L 10.408403 13.97911 C 11.433648 12.953865 12.371596 12.240036 13.222115 11.837493 C 14.080294 11.434949 15.196666 11.233809 16.571232 11.233809 C 18.530595 11.233809 19.510276 11.978013 19.510276 13.466553 C 19.510276 13.937376 19.445695 14.373994 19.316665 14.776537 L 18.667285 16.918155 Z M 21.139337 16.918155 " transform="matrix(29.57753,0,0,29.57753,3677.500614,-157.479264)"/></g><g style="fill:rgb(100%,97.648621%,97.648621%);fill-opacity:1;"><g transform="translate(180.592252, 2282.383696)"><path style="stroke:none;" d="M 472.886719 31.738281 C 769.628906 31.738281 947.359375 -120.601562 947.359375 -364.980469 C 947.359375 -558.578125 844.210938 -668.070312 604.59375 -728.371094 L 523.664062 -747.414062 C 436.386719 -768.042969 410.996094 -790.257812 410.996094 -829.929688 C 410.996094 -866.429688 434.800781 -888.644531 466.539062 -888.644531 C 507.796875 -888.644531 537.945312 -847.386719 537.945312 -779.148438 L 894.992188 -842.625 C 885.46875 -1056.851562 709.328125 -1174.28125 479.234375 -1174.28125 C 193.597656 -1174.28125 34.910156 -1033.046875 34.910156 -793.433594 C 34.910156 -591.898438 139.644531 -480.820312 382.433594 -423.691406 L 468.125 -403.0625 C 542.707031 -385.609375 569.683594 -363.390625 569.683594 -322.132812 C 569.683594 -284.046875 536.359375 -261.832031 491.929688 -261.832031 C 433.214844 -261.832031 387.195312 -301.503906 387.195312 -388.78125 L 15.867188 -341.175781 C 28.5625 -103.144531 209.464844 31.738281 472.886719 31.738281 Z M 472.886719 31.738281 "/></g></g><g style="fill:rgb(100%,97.648621%,97.648621%);fill-opacity:1;"><g transform="translate(1099.300285, 2282.383696)"><path style="stroke:none;" d="M 47.605469 0 L 460.191406 0 L 460.191406 -428.453125 L 634.746094 -428.453125 L 634.746094 0 L 1047.332031 0 L 1047.332031 -1142.542969 L 634.746094 -1142.542969 L 634.746094 -745.828125 L 460.191406 -745.828125 L 460.191406 -1142.542969 L 47.605469 -1142.542969 Z M 47.605469 0 "/></g></g><g style="fill:rgb(100%,97.648621%,97.648621%);fill-opacity:1;"><g transform="translate(2149.707363, 2282.383696)"><path style="stroke:none;" d="M 610.941406 31.738281 C 964.8125 31.738281 1198.082031 -206.292969 1198.082031 -571.269531 C 1198.082031 -936.25 964.8125 -1174.28125 610.941406 -1174.28125 C 257.070312 -1174.28125 23.804688 -936.25 23.804688 -571.269531 C 23.804688 -206.292969 257.070312 31.738281 610.941406 31.738281 Z M 610.941406 -317.371094 C 501.449219 -317.371094 436.386719 -412.585938 436.386719 -571.269531 C 436.386719 -729.957031 501.449219 -825.167969 610.941406 -825.167969 C 720.4375 -825.167969 785.496094 -729.957031 785.496094 -571.269531 C 785.496094 -412.585938 720.4375 -317.371094 610.941406 -317.371094 Z M 610.941406 -317.371094 "/></g></g><g style="fill:rgb(100%,97.648621%,97.648621%);fill-opacity:1;"><g transform="translate(3327.052483, 2282.383696)"><path style="stroke:none;" d="M 269.765625 0 L 682.351562 0 L 682.351562 -793.433594 L 920.382812 -793.433594 L 920.382812 -1142.542969 L 31.738281 -1142.542969 L 31.738281 -793.433594 L 269.765625 -793.433594 Z M 269.765625 0 "/></g></g><g clip-rule="nonzero" clip-path="url(#clip3)"><path style="fill:none;stroke-width:2.158335;stroke-linecap:butt;stroke-linejoin:miter;stroke:rgb(39.99939%,59.999084%,39.99939%);stroke-opacity:1;stroke-miterlimit:4;" d="M 14.159123 39.934122 C 22.885076 39.934122 28.102431 35.457263 28.102431 28.269158 C 28.102431 22.5733 25.072336 19.360924 18.032283 17.583826 L 15.651486 17.025611 C 13.076922 16.421797 12.336541 15.761128 12.336541 14.599215 C 12.336541 13.528385 13.031323 12.867716 13.965471 12.867716 C 15.184355 12.867716 16.072904 14.086599 16.072904 16.091463 L 26.564584 14.223281 C 26.291219 7.923725 21.107978 4.472098 14.341405 4.472098 C 5.945787 4.472098 1.275275 8.629993 1.275275 15.670045 C 1.275275 21.593668 4.35097 24.863014 11.493476 26.537544 L 14.01107 27.152728 C 16.209586 27.665344 16.995681 28.314642 16.995681 29.533526 C 16.995681 30.649955 16.015934 31.299253 14.717338 31.299253 C 12.985839 31.299253 11.630158 30.137339 11.630158 27.562775 L 0.717061 28.964055 C 1.092994 35.969879 6.412803 39.934122 14.159123 39.934122 Z M 14.159123 39.934122 " transform="matrix(34.009092,0,0,34.009092,172.089979,956.029116)"/></g><path style="fill:none;stroke-width:2.158335;stroke-linecap:butt;stroke-linejoin:miter;stroke:rgb(39.99939%,59.999084%,39.99939%);stroke-opacity:1;stroke-miterlimit:4;" d="M 1.651179 38.999974 L 13.783275 38.999974 L 13.783275 26.400861 L 18.909432 26.400861 L 18.909432 38.999974 L 31.041528 38.999974 L 31.041528 5.406131 L 18.909432 5.406131 L 18.909432 17.07121 L 13.783275 17.07121 L 13.783275 5.406131 L 1.651179 5.406131 Z M 1.651179 38.999974 " transform="matrix(34.009092,0,0,34.009092,1090.798012,956.029116)"/><g clip-rule="nonzero" clip-path="url(#clip4)"><path style="fill:none;stroke-width:2.158335;stroke-linecap:butt;stroke-linejoin:miter;stroke:rgb(39.99939%,59.999084%,39.99939%);stroke-opacity:1;stroke-miterlimit:4;" d="M 18.214511 39.934122 C 28.615107 39.934122 35.472878 32.939669 35.472878 22.197367 C 35.472878 11.466551 28.615107 4.472098 18.214511 4.472098 C 7.814029 4.472098 0.944887 11.466551 0.944887 22.197367 C 0.944887 32.939669 7.814029 39.934122 18.214511 39.934122 Z M 18.214511 29.670323 C 14.990764 29.670323 13.076983 26.867993 13.076983 22.197367 C 13.076983 17.538227 14.990764 14.735897 18.214511 14.735897 C 21.438373 14.735897 23.352154 17.538227 23.352154 22.197367 C 23.352154 26.867993 21.438373 29.670323 18.214511 29.670323 Z M 18.214511 29.670323 " transform="matrix(34.009092,0,0,34.009092,2141.20509,956.029116)"/></g><path style="fill:none;stroke-width:2.158335;stroke-linecap:butt;stroke-linejoin:miter;stroke:rgb(39.99939%,59.999084%,39.99939%);stroke-opacity:1;stroke-miterlimit:4;" d="M 8.178551 38.999974 L 20.310647 38.999974 L 20.310647 15.670045 L 27.316471 15.670045 L 27.316471 5.406131 L 1.184098 5.406131 L 1.184098 15.670045 L 8.178551 15.670045 Z M 8.178551 38.999974 " transform="matrix(34.009092,0,0,34.009092,3318.55021,956.029116)"/><path style=" stroke:none;fill-rule:nonzero;fill:rgb(100%,97.648621%,97.648621%);fill-opacity:1;" d="M 2165.570312 1728.964844 C 2165.570312 1401.292969 2431.191406 1135.628906 2758.890625 1135.628906 C 3086.589844 1135.628906 3352.214844 1401.292969 3352.214844 1728.964844 C 3352.214844 2056.664062 3086.589844 2322.296875 2758.890625 2322.296875 C 2431.191406 2322.296875 2165.570312 2056.664062 2165.570312 1728.964844 "/><g clip-rule="nonzero" clip-path="url(#clip5)"><path style=" stroke:none;fill-rule:nonzero;fill:rgb(39.99939%,59.999084%,39.99939%);fill-opacity:1;" d="M 2758.890625 1142.050781 C 2435.246094 1142.050781 2171.964844 1405.34375 2171.964844 1728.964844 C 2171.964844 2052.597656 2435.246094 2315.90625 2758.890625 2315.90625 C 3082.511719 2315.90625 3345.820312 2052.597656 3345.820312 1728.964844 C 3345.820312 1405.34375 3082.511719 1142.050781 2758.890625 1142.050781 Z M 2758.890625 2328.71875 C 2428.179688 2328.71875 2159.164062 2059.679688 2159.164062 1728.964844 C 2159.164062 1398.261719 2428.179688 1129.234375 2758.890625 1129.234375 C 3089.578125 1129.234375 3358.632812 1398.261719 3358.632812 1728.964844 C 3358.632812 2059.679688 3089.578125 2328.71875 2758.890625 2328.71875 "/></g><path style=" stroke:none;fill-rule:nonzero;fill:rgb(39.99939%,59.999084%,39.99939%);fill-opacity:1;" d="M 3069.175781 2225.183594 C 3085.285156 2215.289062 3107.414062 2192.046875 3118.117188 2173.6875 C 3128.800781 2155.324219 3122.394531 2147.382812 3104.238281 2155.730469 C 3086.105469 2164.074219 3064.664062 2186.796875 3055.984375 2206.714844 C 3047.328125 2226.636719 3053.089844 2235.089844 3069.175781 2225.183594 "/><path style=" stroke:none;fill-rule:nonzero;fill:rgb(39.99939%,59.999084%,39.99939%);fill-opacity:1;" d="M 2988.199219 2266.558594 C 3005.347656 2259.441406 3026.019531 2236.828125 3034.003906 2216.421875 C 3041.972656 2196.042969 3032.589844 2184.574219 3013.382812 2190.578125 C 2994.203125 2196.566406 2974.011719 2218.683594 2968.0625 2240.191406 C 2962.113281 2261.714844 2970.996094 2273.679688 2988.199219 2266.558594 "/><path style=" stroke:none;fill-rule:nonzero;fill:rgb(39.99939%,59.999084%,39.99939%);fill-opacity:1;" d="M 2902.886719 2294.410156 C 2920.75 2290.074219 2939.703125 2268.550781 2944.964844 2246.734375 C 2950.242188 2224.914062 2938.125 2210.390625 2918.234375 2214.050781 C 2898.351562 2217.714844 2879.695312 2238.699219 2876.464844 2261.214844 C 2873.222656 2283.722656 2885 2298.757812 2902.886719 2294.410156 "/><path style=" stroke:none;fill-rule:nonzero;fill:rgb(39.99939%,59.999084%,39.99939%);fill-opacity:1;" d="M 2814.980469 2308.746094 C 2833.234375 2307.183594 2850.164062 2287.25 2852.695312 2264.582031 C 2855.226562 2241.914062 2840.757812 2224.808594 2820.484375 2226.140625 C 2800.242188 2227.445312 2783.390625 2246.855469 2782.878906 2269.765625 C 2782.378906 2292.6875 2796.730469 2310.304688 2814.980469 2308.746094 "/><path style=" stroke:none;fill-rule:nonzero;fill:rgb(39.99939%,59.999084%,39.99939%);fill-opacity:1;" d="M 2726.117188 2309.566406 C 2744.410156 2310.789062 2759.054688 2292.886719 2758.890625 2269.980469 C 2758.730469 2247.058594 2742.082031 2227.847656 2721.796875 2226.824219 C 2701.5 2225.789062 2686.757812 2243.179688 2688.96875 2265.886719 C 2691.160156 2288.621094 2707.863281 2308.339844 2726.117188 2309.566406 "/><path style=" stroke:none;fill-rule:nonzero;fill:rgb(39.99939%,59.999084%,39.99939%);fill-opacity:1;" d="M 2637.992188 2296.871094 C 2655.949219 2300.882812 2668.050781 2285.484375 2665.167969 2262.925781 C 2662.277344 2240.339844 2643.796875 2219.492188 2623.832031 2216.140625 C 2603.886719 2212.761719 2591.503906 2227.621094 2596.429688 2249.574219 C 2601.355469 2271.511719 2620.078125 2292.875 2637.992188 2296.871094 "/><path style=" stroke:none;fill-rule:nonzero;fill:rgb(39.99939%,59.999084%,39.99939%);fill-opacity:1;" d="M 2552.308594 2270.640625 C 2569.574219 2277.4375 2578.863281 2265.066406 2573.238281 2243.394531 C 2567.597656 2221.738281 2547.597656 2199.746094 2528.28125 2194.023438 C 2509.003906 2188.316406 2499.289062 2200.1875 2506.90625 2220.78125 C 2514.550781 2241.375 2535.023438 2263.882812 2552.308594 2270.640625 "/><path style=" stroke:none;fill-rule:nonzero;fill:rgb(39.99939%,59.999084%,39.99939%);fill-opacity:1;" d="M 2470.683594 2230.917969 C 2486.957031 2240.476562 2493.109375 2231.589844 2484.75 2211.453125 C 2476.417969 2191.292969 2455.097656 2168.625 2436.820312 2160.574219 C 2418.539062 2152.5 2411.730469 2160.898438 2422.09375 2179.527344 C 2432.445312 2198.183594 2454.4375 2221.363281 2470.683594 2230.917969 "/><path style=" stroke:none;fill-rule:nonzero;fill:rgb(39.99939%,59.999084%,39.99939%);fill-opacity:1;" d="M 2343.675781 2125.847656 C 2356.746094 2141.960938 2379.910156 2165.328125 2394.824219 2177.683594 C 2409.710938 2190.011719 2412.46875 2185.074219 2401.417969 2167.023438 C 2390.355469 2148.960938 2368.039062 2126.105469 2351.09375 2115.714844 C 2334.1875 2105.308594 2330.605469 2109.722656 2343.675781 2125.847656 "/><path style=" stroke:none;fill-rule:nonzero;fill:rgb(39.99939%,59.999084%,39.99939%);fill-opacity:1;" d="M 3202.832031 2065.804688 C 3212.082031 2046.957031 3203.167969 2037.589844 3183.476562 2044.683594 C 3163.8125 2051.765625 3141.992188 2074.082031 3134.308594 2094.675781 C 3126.636719 2115.242188 3134.777344 2125.027344 3152.882812 2116.183594 C 3170.972656 2107.339844 3193.574219 2084.632812 3202.832031 2065.804688 "/><path style=" stroke:none;fill-rule:nonzero;fill:rgb(39.99939%,59.999084%,39.99939%);fill-opacity:1;" d="M 3110.027344 2103.316406 C 3117.144531 2082.183594 3105.664062 2069.53125 3084.773438 2074.835938 C 3063.898438 2080.164062 3042.671875 2102.523438 3037.113281 2124.960938 C 3031.554688 2147.382812 3042.496094 2160.441406 3061.796875 2153.804688 C 3081.101562 2147.167969 3102.90625 2124.421875 3110.027344 2103.316406 "/><path style=" stroke:none;fill-rule:nonzero;fill:rgb(39.99939%,59.999084%,39.99939%);fill-opacity:1;" d="M 3011.550781 2131.136719 C 3016.585938 2108.308594 3002.761719 2092.84375 2981.011719 2096.398438 C 2959.273438 2099.953125 2938.976562 2121.878906 2935.542969 2145.554688 C 2932.070312 2169.21875 2945.542969 2185.113281 2965.707031 2180.671875 C 2985.882812 2176.269531 3006.542969 2153.941406 3011.550781 2131.136719 "/><path style=" stroke:none;fill-rule:nonzero;fill:rgb(39.99939%,59.999084%,39.99939%);fill-opacity:1;" d="M 2909.148438 2149.269531 C 2912.054688 2125.363281 2896.183594 2107.554688 2873.949219 2109.320312 C 2851.671875 2111.082031 2832.574219 2132.132812 2831.265625 2156.457031 C 2829.960938 2180.820312 2845.601562 2199.019531 2866.277344 2196.808594 C 2886.992188 2194.601562 2906.226562 2173.175781 2909.148438 2149.269531 "/><path style=" stroke:none;fill-rule:nonzero;fill:rgb(39.99939%,59.999084%,39.99939%);fill-opacity:1;" d="M 2804.402344 2157.707031 C 2805.195312 2133.277344 2787.589844 2113.625 2765.152344 2113.625 C 2742.726562 2113.625 2725.132812 2133.277344 2725.929688 2157.707031 C 2726.710938 2182.125 2744.300781 2202.195312 2765.179688 2202.195312 C 2786.042969 2202.195312 2803.621094 2182.125 2804.402344 2157.707031 "/><path style=" stroke:none;fill-rule:nonzero;fill:rgb(39.99939%,59.999084%,39.99939%);fill-opacity:1;" d="M 3293.863281 1956.238281 C 3301.308594 1937.769531 3290.324219 1927.339844 3269.917969 1932.84375 C 3249.539062 1938.324219 3228.300781 1959.28125 3221.960938 1979.753906 C 3215.621094 2000.199219 3225.769531 2010.898438 3245.03125 2003.414062 C 3264.265625 1995.933594 3286.394531 1974.679688 3293.863281 1956.238281 "/><path style=" stroke:none;fill-rule:nonzero;fill:rgb(39.99939%,59.999084%,39.99939%);fill-opacity:1;" d="M 3147.875 2035.828125 C 3168.496094 2030 3190.449219 2007.953125 3196.371094 1986.898438 C 3202.320312 1965.835938 3189.089844 1952.292969 3167.324219 1956.585938 C 3145.574219 1960.882812 3124.253906 1982.632812 3119.433594 2005.246094 C 3114.628906 2027.871094 3127.1875 2041.683594 3147.875 2035.828125 "/><path style=" stroke:none;fill-rule:nonzero;fill:rgb(39.99939%,59.999084%,39.99939%);fill-opacity:1;" d="M 3044.757812 2060.242188 C 3066.457031 2056.058594 3087.953125 2033.726562 3092.378906 2010.65625 C 3096.792969 1987.558594 3081.585938 1971.449219 3058.757812 1974.515625 C 3035.902344 1977.597656 3014.929688 1999.632812 3011.605469 2023.847656 C 3008.308594 2048.0625 3023.046875 2064.46875 3044.757812 2060.242188 "/><path style=" stroke:none;fill-rule:nonzero;fill:rgb(39.99939%,59.999084%,39.99939%);fill-opacity:1;" d="M 3264.992188 1878.222656 C 3268.960938 1857.46875 3253.753906 1842.703125 3231.609375 1845.257812 C 3209.46875 1847.777344 3189.15625 1868.074219 3185.875 1890.578125 C 3182.589844 1913.113281 3197.003906 1928.027344 3218.488281 1923.730469 C 3239.96875 1919.453125 3261.007812 1898.980469 3264.992188 1878.222656 "/><path style=" stroke:none;fill-rule:nonzero;fill:rgb(39.99939%,59.999084%,39.99939%);fill-opacity:1;" d="M 3157.957031 1894.308594 C 3161.011719 1871.25 3144.214844 1854.144531 3120.847656 1856.054688 C 3097.496094 1857.953125 3076.847656 1879.207031 3074.464844 1903.582031 C 3072.09375 1927.945312 3088.328125 1945.214844 3110.996094 1941.996094 C 3133.675781 1938.765625 3154.914062 1917.339844 3157.957031 1894.308594 "/><path style=" stroke:none;fill-rule:nonzero;fill:rgb(39.99939%,59.999084%,39.99939%);fill-opacity:1;" d="M 3335.914062 1775.832031 C 3337.40625 1756.207031 3320.570312 1740.511719 3298.882812 1740.824219 C 3277.171875 1741.132812 3258.949219 1758.914062 3257.683594 1780.542969 C 3256.417969 1802.160156 3272.421875 1817.910156 3293.878906 1815.605469 C 3315.347656 1813.304688 3334.417969 1795.457031 3335.914062 1775.832031 "/><path style=" stroke:none;fill-rule:nonzero;fill:rgb(39.99939%,59.999084%,39.99939%);fill-opacity:1;" d="M 3186.019531 1825.554688 C 3208.863281 1823.75 3228.757812 1804.191406 3229.929688 1781.96875 C 3231.125 1759.734375 3212.996094 1741.886719 3189.910156 1742.113281 C 3166.828125 1742.34375 3147.59375 1761.847656 3146.652344 1785.644531 C 3145.679688 1809.414062 3163.125 1827.332031 3186.019531 1825.554688 "/><path style=" stroke:none;fill-rule:nonzero;fill:rgb(39.99939%,59.999084%,39.99939%);fill-opacity:1;" d="M 3277.414062 1679.753906 C 3276.097656 1658.609375 3256.511719 1639.738281 3234.234375 1637.71875 C 3211.933594 1635.710938 3195.105469 1652.726562 3196.199219 1675.621094 C 3197.273438 1698.542969 3216.089844 1717.347656 3238.609375 1717.589844 C 3261.101562 1717.859375 3278.734375 1700.898438 3277.414062 1679.753906 "/><path style=" stroke:none;fill-rule:nonzero;fill:rgb(39.99939%,59.999084%,39.99939%);fill-opacity:1;" d="M 3321.886719 1591.792969 C 3317.433594 1572.570312 3296.582031 1552.867188 3275.921875 1547.964844 C 3255.273438 1543.09375 3241.988281 1556.472656 3245.769531 1577.699219 C 3249.566406 1598.925781 3269.566406 1618.457031 3290.890625 1621.351562 C 3312.238281 1624.273438 3326.355469 1611.039062 3321.886719 1591.792969 "/><path style=" stroke:none;fill-rule:nonzero;fill:rgb(39.99939%,59.999084%,39.99939%);fill-opacity:1;" d="M 3240.132812 1484.90625 C 3233.523438 1464.929688 3211.433594 1443.179688 3191.363281 1436.625 C 3171.269531 1430.054688 3159.761719 1442.558594 3165.226562 1464.296875 C 3170.71875 1486.050781 3192.039062 1507.503906 3213.238281 1512.324219 C 3234.425781 1517.128906 3246.714844 1504.921875 3240.132812 1484.90625 "/><path style=" stroke:none;fill-rule:nonzero;fill:rgb(39.99939%,59.999084%,39.99939%);fill-opacity:1;" d="M 3251.761719 1418.683594 C 3241.328125 1401.34375 3218.394531 1378.90625 3201.125 1368.824219 C 3183.839844 1358.71875 3177.367188 1366.457031 3186.238281 1385.757812 C 3195.105469 1405.058594 3217.179688 1427.121094 3236.027344 1435.210938 C 3254.871094 1443.289062 3262.207031 1435.964844 3251.761719 1418.683594 "/><path style=" stroke:none;fill-rule:nonzero;fill:rgb(39.99939%,59.999084%,39.99939%);fill-opacity:1;" d="M 3102.984375 1256.460938 C 3087.441406 1245.355469 3083.199219 1252.074219 3093.050781 1271.117188 C 3102.917969 1290.179688 3124.820312 1313.007812 3142.382812 1322.386719 C 3159.921875 1331.742188 3165.011719 1325.523438 3153.085938 1308.230469 C 3141.210938 1290.945312 3118.519531 1267.578125 3102.984375 1256.460938 "/></g></svg>